<svg xmlns="http://www.w3.org/2000/svg" viewBox="0 0 96 96" width="96" height="96" role="img" aria-label="UZB crest">
<defs><clipPath id="c"><circle cx="48" cy="48" r="46"/></clipPath></defs>
<g clip-path="url(#c)">
<rect x="0" y="0" width="96" height="32.5" fill="#0099B5"/><rect x="0" y="32" width="96" height="32.5" fill="#FFFFFF"/><rect x="0" y="64" width="96" height="32.5" fill="#1EB53A"/><rect x="0" y="31" width="96" height="2.5" fill="#CE1126"/><rect x="0" y="62.5" width="96" height="2.5" fill="#CE1126"/><circle cx="22" cy="16" r="9" fill="#FFFFFF" /><circle cx="25.6" cy="16" r="7.38" fill="#0099B5" /><path d="M38.0 9.4L38.6 11.2L40.5 11.2L39.0 12.3L39.5 14.1L38.0 13.0L36.5 14.1L37.0 12.3L35.5 11.2L37.4 11.2Z" fill="#FFFFFF" /><path d="M44.0 15.4L44.6 17.2L46.5 17.2L45.0 18.3L45.5 20.1L44.0 19.0L42.5 20.1L43.0 18.3L41.5 17.2L43.4 17.2Z" fill="#FFFFFF" /><path d="M38.0 21.4L38.6 23.2L40.5 23.2L39.0 24.3L39.5 26.1L38.0 25.0L36.5 26.1L37.0 24.3L35.5 23.2L37.4 23.2Z" fill="#FFFFFF" />
<rect x="0" y="0" width="96" height="96" fill="none"/>
</g>
<circle cx="48" cy="48" r="46" fill="none" stroke="rgba(0,0,0,0.18)" stroke-width="2"/>
<text x="48" y="50" text-anchor="middle" dominant-baseline="central" font-family="Inter, 'Segoe UI', Arial, sans-serif" font-weight="800" font-size="19" letter-spacing="1.5" fill="#1A1A1A" stroke="rgba(255,255,255,0.85)" stroke-width="3" paint-order="stroke" stroke-linejoin="round">UZB</text>
</svg>
