<svg xmlns="http://www.w3.org/2000/svg" viewBox="0 0 96 96" width="96" height="96" role="img" aria-label="AUS crest">
<defs><clipPath id="c"><circle cx="48" cy="48" r="46"/></clipPath></defs>
<g clip-path="url(#c)">
<rect x="0" y="0" width="96" height="96" fill="#00247D"/><path d="M48.0 57.0L49.9 64.0L56.6 61.1L52.3 67.0L58.7 70.4L51.4 70.7L52.8 77.9L48.0 72.4L43.2 77.9L44.6 70.7L37.3 70.4L43.7 67.0L39.4 61.1L46.1 64.0Z" fill="#FFFFFF" /><path d="M70.0 15.5L70.8 18.4L73.5 17.2L71.8 19.6L74.4 21.0L71.4 21.1L72.0 24.1L70.0 21.8L68.0 24.1L68.6 21.1L65.6 21.0L68.2 19.6L66.5 17.2L69.2 18.4Z" fill="#FFFFFF" /><path d="M82.0 33.5L82.8 36.4L85.5 35.2L83.8 37.6L86.4 39.0L83.4 39.1L84.0 42.1L82.0 39.8L80.0 42.1L80.6 39.1L77.6 39.0L80.2 37.6L78.5 35.2L81.2 36.4Z" fill="#FFFFFF" /><path d="M64.0 35.5L64.8 38.4L67.5 37.2L65.8 39.6L68.4 41.0L65.4 41.1L66.0 44.1L64.0 41.8L62.0 44.1L62.6 41.1L59.6 41.0L62.2 39.6L60.5 37.2L63.2 38.4Z" fill="#FFFFFF" /><path d="M74.0 49.5L74.8 52.4L77.5 51.2L75.8 53.6L78.4 55.0L75.4 55.1L76.0 58.1L74.0 55.8L72.0 58.1L72.6 55.1L69.6 55.0L72.2 53.6L70.5 51.2L73.2 52.4Z" fill="#FFFFFF" /><path d="M78.0 27.0L78.7 29.0L80.9 29.1L79.1 30.4L79.8 32.4L78.0 31.2L76.2 32.4L76.9 30.4L75.1 29.1L77.3 29.0Z" fill="#FFFFFF" />
<rect x="0" y="0" width="96" height="96" fill="none"/>
</g>
<circle cx="48" cy="48" r="46" fill="none" stroke="rgba(0,0,0,0.18)" stroke-width="2"/>
<text x="48" y="50" text-anchor="middle" dominant-baseline="central" font-family="Inter, 'Segoe UI', Arial, sans-serif" font-weight="800" font-size="19" letter-spacing="1.5" fill="#FFFFFF" stroke="rgba(0,0,0,0.45)" stroke-width="3" paint-order="stroke" stroke-linejoin="round">AUS</text>
</svg>
