<svg xmlns="http://www.w3.org/2000/svg" viewBox="0 0 96 96" width="96" height="96" role="img" aria-label="ALG crest">
<defs><clipPath id="c"><circle cx="48" cy="48" r="46"/></clipPath></defs>
<g clip-path="url(#c)">
<rect x="0" y="0" width="48" height="96" fill="#006233"/><rect x="48" y="0" width="48" height="96" fill="#FFFFFF"/><circle cx="48" cy="48" r="18" fill="#D21034" /><circle cx="53" cy="48" r="14.5" fill="#FFFFFF" /><path d="M53 34 A14.5 14.5 0 0 1 53 62 A11.5 14.5 0 0 0 53 34 Z" fill="#006233" /><path d="M49.8 41.3L52.9 45.3L57.7 43.9L54.8 48.0L57.7 52.1L52.9 50.7L49.8 54.7L49.7 49.6L45.0 48.0L49.7 46.4Z" fill="#D21034" />
<rect x="0" y="0" width="96" height="96" fill="none"/>
</g>
<circle cx="48" cy="48" r="46" fill="none" stroke="rgba(0,0,0,0.18)" stroke-width="2"/>
<text x="48" y="50" text-anchor="middle" dominant-baseline="central" font-family="Inter, 'Segoe UI', Arial, sans-serif" font-weight="800" font-size="19" letter-spacing="1.5" fill="#1A1A1A" stroke="rgba(255,255,255,0.85)" stroke-width="3" paint-order="stroke" stroke-linejoin="round">ALG</text>
</svg>
