<svg xmlns="http://www.w3.org/2000/svg" viewBox="0 0 96 96" width="96" height="96" role="img" aria-label="RSA crest">
<defs><clipPath id="c"><circle cx="48" cy="48" r="46"/></clipPath></defs>
<g clip-path="url(#c)">
<rect x="0" y="0" width="96" height="48" fill="#DE3831"/><rect x="0" y="48" width="96" height="48" fill="#002395"/><polygon points="0 0 48 48 0 96 0 80 32 48 0 16" fill="#FFFFFF" /><polygon points="0 8 40 48 0 88" fill="#007A4D" /><polygon points="40 48 0 88 0 96 24 96 56 48 24 0 0 0 0 8" fill="#007A4D" /><polygon points="0 20 30 48 0 76" fill="#FFB612" /><polygon points="0 28 20 48 0 68" fill="#000000" />
<rect x="0" y="0" width="96" height="96" fill="none"/>
</g>
<circle cx="48" cy="48" r="46" fill="none" stroke="rgba(0,0,0,0.18)" stroke-width="2"/>
<text x="48" y="50" text-anchor="middle" dominant-baseline="central" font-family="Inter, 'Segoe UI', Arial, sans-serif" font-weight="800" font-size="19" letter-spacing="1.5" fill="#FFFFFF" stroke="rgba(0,0,0,0.45)" stroke-width="3" paint-order="stroke" stroke-linejoin="round">RSA</text>
</svg>
