<svg xmlns="http://www.w3.org/2000/svg" viewBox="0 0 96 96" width="96" height="96" role="img" aria-label="PAN crest">
<defs><clipPath id="c"><circle cx="48" cy="48" r="46"/></clipPath></defs>
<g clip-path="url(#c)">
<rect x="0" y="0" width="48" height="48" fill="#FFFFFF"/><rect x="48" y="0" width="48" height="48" fill="#D21034"/><rect x="0" y="48" width="48" height="48" fill="#005293"/><rect x="48" y="48" width="48" height="48" fill="#FFFFFF"/><path d="M24.0 15.0L26.1 21.1L32.6 21.2L27.4 25.1L29.3 31.3L24.0 27.6L18.7 31.3L20.6 25.1L15.4 21.2L21.9 21.1Z" fill="#005293" /><path d="M72.0 63.0L74.1 69.1L80.6 69.2L75.4 73.1L77.3 79.3L72.0 75.6L66.7 79.3L68.6 73.1L63.4 69.2L69.9 69.1Z" fill="#D21034" />
<rect x="0" y="0" width="96" height="96" fill="none"/>
</g>
<circle cx="48" cy="48" r="46" fill="none" stroke="rgba(0,0,0,0.18)" stroke-width="2"/>
<text x="48" y="50" text-anchor="middle" dominant-baseline="central" font-family="Inter, 'Segoe UI', Arial, sans-serif" font-weight="800" font-size="19" letter-spacing="1.5" fill="#1A1A1A" stroke="rgba(255,255,255,0.85)" stroke-width="3" paint-order="stroke" stroke-linejoin="round">PAN</text>
</svg>
