<svg xmlns="http://www.w3.org/2000/svg" viewBox="0 0 96 96" width="96" height="96" role="img" aria-label="CPV crest">
<defs><clipPath id="c"><circle cx="48" cy="48" r="46"/></clipPath></defs>
<g clip-path="url(#c)">
<rect x="0" y="0" width="96" height="96" fill="#003893"/><rect x="0" y="52" width="96" height="8" fill="#FFFFFF"/><rect x="0" y="60" width="96" height="8" fill="#CF2027"/><rect x="0" y="68" width="96" height="8" fill="#FFFFFF"/><circle cx="50" cy="44" r="2.4" fill="#F7D116" /><circle cx="46.94427190999916" cy="53.404564036679574" r="2.4" fill="#F7D116" /><circle cx="38.94427190999916" cy="59.21690426072246" r="2.4" fill="#F7D116" /><circle cx="29.05572809000084" cy="59.21690426072246" r="2.4" fill="#F7D116" /><circle cx="21.05572809000084" cy="53.404564036679574" r="2.4" fill="#F7D116" /><circle cx="18" cy="44" r="2.4" fill="#F7D116" /><circle cx="21.05572809000084" cy="34.59543596332043" r="2.4" fill="#F7D116" /><circle cx="29.05572809000084" cy="28.78309573927754" r="2.4" fill="#F7D116" /><circle cx="38.94427190999916" cy="28.78309573927754" r="2.4" fill="#F7D116" /><circle cx="46.94427190999916" cy="34.595435963320426" r="2.4" fill="#F7D116" />
<rect x="0" y="0" width="96" height="96" fill="none"/>
</g>
<circle cx="48" cy="48" r="46" fill="none" stroke="rgba(0,0,0,0.18)" stroke-width="2"/>
<text x="48" y="50" text-anchor="middle" dominant-baseline="central" font-family="Inter, 'Segoe UI', Arial, sans-serif" font-weight="800" font-size="19" letter-spacing="1.5" fill="#FFFFFF" stroke="rgba(0,0,0,0.45)" stroke-width="3" paint-order="stroke" stroke-linejoin="round">CPV</text>
</svg>
