<svg xmlns="http://www.w3.org/2000/svg" viewBox="0 0 96 96" width="96" height="96" role="img" aria-label="CRO crest">
<defs><clipPath id="c"><circle cx="48" cy="48" r="46"/></clipPath></defs>
<g clip-path="url(#c)">
<rect x="0" y="0" width="96" height="32.5" fill="#FF0000"/><rect x="0" y="32" width="96" height="32.5" fill="#FFFFFF"/><rect x="0" y="64" width="96" height="32.5" fill="#171796"/><rect x="34" y="30" width="28" height="28" fill="#FFFFFF"/><rect x="34" y="30" width="5.6" height="5.6" fill="#FF0000"/><rect x="45.2" y="30" width="5.6" height="5.6" fill="#FF0000"/><rect x="56.4" y="30" width="5.6" height="5.6" fill="#FF0000"/><rect x="39.6" y="35.6" width="5.6" height="5.6" fill="#FF0000"/><rect x="50.8" y="35.6" width="5.6" height="5.6" fill="#FF0000"/><rect x="34" y="41.2" width="5.6" height="5.6" fill="#FF0000"/><rect x="45.2" y="41.2" width="5.6" height="5.6" fill="#FF0000"/><rect x="56.4" y="41.2" width="5.6" height="5.6" fill="#FF0000"/><rect x="39.6" y="46.8" width="5.6" height="5.6" fill="#FF0000"/><rect x="50.8" y="46.8" width="5.6" height="5.6" fill="#FF0000"/><rect x="34" y="52.4" width="5.6" height="5.6" fill="#FF0000"/><rect x="45.2" y="52.4" width="5.6" height="5.6" fill="#FF0000"/><rect x="56.4" y="52.4" width="5.6" height="5.6" fill="#FF0000"/>
<rect x="0" y="0" width="96" height="96" fill="none"/>
</g>
<circle cx="48" cy="48" r="46" fill="none" stroke="rgba(0,0,0,0.18)" stroke-width="2"/>
<text x="48" y="50" text-anchor="middle" dominant-baseline="central" font-family="Inter, 'Segoe UI', Arial, sans-serif" font-weight="800" font-size="19" letter-spacing="1.5" fill="#1A1A1A" stroke="rgba(255,255,255,0.85)" stroke-width="3" paint-order="stroke" stroke-linejoin="round">CRO</text>
</svg>
