<svg xmlns="http://www.w3.org/2000/svg" viewBox="0 0 96 96" width="96" height="96" role="img" aria-label="NZL crest">
<defs><clipPath id="c"><circle cx="48" cy="48" r="46"/></clipPath></defs>
<g clip-path="url(#c)">
<rect x="0" y="0" width="96" height="96" fill="#00247D"/><path d="M62.0 16.0L63.4 20.1L67.7 20.1L64.3 22.7L65.5 26.9L62.0 24.4L58.5 26.9L59.7 22.7L56.3 20.1L60.6 20.1Z" fill="#CC142B" stroke="#fff" stroke-width="1.2"/><path d="M52.0 36.0L53.4 40.1L57.7 40.1L54.3 42.7L55.5 46.9L52.0 44.4L48.5 46.9L49.7 42.7L46.3 40.1L50.6 40.1Z" fill="#CC142B" stroke="#fff" stroke-width="1.2"/><path d="M62.0 56.0L63.4 60.1L67.7 60.1L64.3 62.7L65.5 66.9L62.0 64.4L58.5 66.9L59.7 62.7L56.3 60.1L60.6 60.1Z" fill="#CC142B" stroke="#fff" stroke-width="1.2"/><path d="M74.0 38.0L75.4 42.1L79.7 42.1L76.3 44.7L77.5 48.9L74.0 46.4L70.5 48.9L71.7 44.7L68.3 42.1L72.6 42.1Z" fill="#CC142B" stroke="#fff" stroke-width="1.2"/>
<rect x="0" y="0" width="96" height="96" fill="none"/>
</g>
<circle cx="48" cy="48" r="46" fill="none" stroke="rgba(0,0,0,0.18)" stroke-width="2"/>
<text x="48" y="50" text-anchor="middle" dominant-baseline="central" font-family="Inter, 'Segoe UI', Arial, sans-serif" font-weight="800" font-size="19" letter-spacing="1.5" fill="#FFFFFF" stroke="rgba(0,0,0,0.45)" stroke-width="3" paint-order="stroke" stroke-linejoin="round">NZL</text>
</svg>
