<svg xmlns="http://www.w3.org/2000/svg" viewBox="0 0 96 96" width="96" height="96" role="img" aria-label="URU crest">
<defs><clipPath id="c"><circle cx="48" cy="48" r="46"/></clipPath></defs>
<g clip-path="url(#c)">
<rect x="0" y="0" width="96" height="96" fill="#FFFFFF"/><rect x="0" y="20" width="96" height="9.5" fill="#0038A8"/><rect x="0" y="39" width="96" height="9.5" fill="#0038A8"/><rect x="0" y="58" width="96" height="9.5" fill="#0038A8"/><rect x="0" y="77" width="96" height="9.5" fill="#0038A8"/><rect x="0" y="0" width="40" height="40" fill="#FFFFFF"/><circle cx="20" cy="20" r="8" fill="#FCD116" /><polygon points="30 20 34.831566169040634 22.24157198710399 34.831566169040634 17.75842801289601" fill="#FCD116" /><polygon points="27.071067811865476 27.071067811865476 28.902470261146583 32.07253176634465 32.07253176634465 28.902470261146583" fill="#FCD116" /><polygon points="20 30 17.758428012896015 34.831566169040634 22.24157198710399 34.831566169040634" fill="#FCD116" /><polygon points="12.928932188134524 27.071067811865476 7.92746823365535 28.902470261146583 11.097529738853417 32.07253176634465" fill="#FCD116" /><polygon points="10 20 5.168433830959366 17.758428012896015 5.168433830959366 22.24157198710399" fill="#FCD116" /><polygon points="12.928932188134523 12.928932188134524 11.097529738853419 7.927468233655347 7.927468233655347 11.097529738853417" fill="#FCD116" /><polygon points="19.999999999999996 10 22.241571987103992 5.168433830959366 17.758428012896005 5.168433830959366" fill="#FCD116" /><polygon points="27.071067811865476 12.928932188134523 32.07253176634465 11.097529738853419 28.902470261146576 7.927468233655345" fill="#FCD116" />
<rect x="0" y="0" width="96" height="96" fill="none"/>
</g>
<circle cx="48" cy="48" r="46" fill="none" stroke="rgba(0,0,0,0.18)" stroke-width="2"/>
<text x="48" y="50" text-anchor="middle" dominant-baseline="central" font-family="Inter, 'Segoe UI', Arial, sans-serif" font-weight="800" font-size="19" letter-spacing="1.5" fill="#1A1A1A" stroke="rgba(255,255,255,0.85)" stroke-width="3" paint-order="stroke" stroke-linejoin="round">URU</text>
</svg>
