<svg xmlns="http://www.w3.org/2000/svg" viewBox="0 0 96 96" width="96" height="96" role="img" aria-label="ARG crest">
<defs><clipPath id="c"><circle cx="48" cy="48" r="46"/></clipPath></defs>
<g clip-path="url(#c)">
<rect x="0" y="0" width="32.5" height="96" fill="#75AADB"/><rect x="32" y="0" width="32.5" height="96" fill="#FFFFFF"/><rect x="64" y="0" width="32.5" height="96" fill="#75AADB"/><circle cx="48" cy="40" r="7" fill="#F6B40E" /><polygon points="56.5 40 59.846727400507525 41.91181847937095 59.846727400507525 38.08818152062905" fill="#F6B40E" /><polygon points="54.01040764008565 46.01040764008565 55.025041468606396 49.7287610909283 57.7287610909283 47.025041468606396" fill="#F6B40E" /><polygon points="48 48.5 46.08818152062905 51.846727400507525 49.91181847937095 51.846727400507525" fill="#F6B40E" /><polygon points="41.98959235991435 46.01040764008565 38.2712389090717 47.025041468606396 40.974958531393604 49.7287610909283" fill="#F6B40E" /><polygon points="39.5 40 36.153272599492475 38.08818152062905 36.153272599492475 41.91181847937096" fill="#F6B40E" /><polygon points="41.98959235991435 33.98959235991435 40.974958531393604 30.2712389090717 38.2712389090717 32.974958531393604" fill="#F6B40E" /><polygon points="48 31.5 49.91181847937095 28.153272599492475 46.08818152062904 28.153272599492475" fill="#F6B40E" /><polygon points="54.01040764008565 33.98959235991435 57.7287610909283 32.974958531393604 55.02504146860639 30.271238909071695" fill="#F6B40E" />
<rect x="0" y="0" width="96" height="96" fill="none"/>
</g>
<circle cx="48" cy="48" r="46" fill="none" stroke="rgba(0,0,0,0.18)" stroke-width="2"/>
<text x="48" y="50" text-anchor="middle" dominant-baseline="central" font-family="Inter, 'Segoe UI', Arial, sans-serif" font-weight="800" font-size="19" letter-spacing="1.5" fill="#1A1A1A" stroke="rgba(255,255,255,0.85)" stroke-width="3" paint-order="stroke" stroke-linejoin="round">ARG</text>
</svg>
